<svg xmlns="http://www.w3.org/2000/svg" viewBox="0 0 800 560" width="800" height="560" preserveAspectRatio="xMidYMid slice"><defs><filter id="blur" x="-20%" y="-20%" width="140%" height="140%"><feGaussianBlur stdDeviation="14"/></filter><radialGradient id="curry" cx="45%" cy="40%" r="60%"><stop offset="0" stop-color="#f4c35a"/><stop offset="1" stop-color="#c7651e"/></radialGradient><radialGradient id="vig" cx="50%" cy="50%" r="70%"><stop offset="55%" stop-color="#000" stop-opacity="0"/><stop offset="100%" stop-color="#000" stop-opacity=".65"/></radialGradient></defs><rect width="800" height="560" fill="#2a1d16"/><rect y="0" width="800" height="89" fill="#33241b" opacity="0.43"/><path d="M0 81 Q 266.6666666666667 77 400.0 81 T 800 81" stroke="#1c130e" stroke-width="1.4" fill="none" opacity=".45"/><path d="M0 7 Q 266.6666666666667 7 400.0 7 T 800 7" stroke="#1c130e" stroke-width="1.4" fill="none" opacity=".45"/><path d="M0 54 Q 266.6666666666667 47 400.0 54 T 800 54" stroke="#1c130e" stroke-width="1.4" fill="none" opacity=".45"/><path d="M0 53 Q 266.6666666666667 41 400.0 53 T 800 53" stroke="#1c130e" stroke-width="1.4" fill="none" opacity=".45"/><path d="M0 52 Q 266.6666666666667 43 400.0 52 T 800 52" stroke="#1c130e" stroke-width="1.4" fill="none" opacity=".45"/><path d="M0 46 Q 266.6666666666667 44 400.0 46 T 800 46" stroke="#1c130e" stroke-width="1.4" fill="none" opacity=".45"/><rect y="92" width="800" height="65" fill="#33241b" opacity="0.56"/><path d="M0 136 Q 266.6666666666667 146 400.0 136 T 800 136" stroke="#1c130e" stroke-width="1.4" fill="none" opacity=".45"/><path d="M0 109 Q 266.6666666666667 103 400.0 109 T 800 109" stroke="#1c130e" stroke-width="1.4" fill="none" opacity=".45"/><path d="M0 98 Q 266.6666666666667 104 400.0 98 T 800 98" stroke="#1c130e" stroke-width="1.4" fill="none" opacity=".45"/><path d="M0 140 Q 266.6666666666667 146 400.0 140 T 800 140" stroke="#1c130e" stroke-width="1.4" fill="none" opacity=".45"/><path d="M0 136 Q 266.6666666666667 131 400.0 136 T 800 136" stroke="#1c130e" stroke-width="1.4" fill="none" opacity=".45"/><path d="M0 115 Q 266.6666666666667 106 400.0 115 T 800 115" stroke="#1c130e" stroke-width="1.4" fill="none" opacity=".45"/><rect y="160" width="800" height="69" fill="#33241b" opacity="0.57"/><path d="M0 219 Q 266.6666666666667 214 400.0 219 T 800 219" stroke="#1c130e" stroke-width="1.4" fill="none" opacity=".45"/><path d="M0 179 Q 266.6666666666667 182 400.0 179 T 800 179" stroke="#1c130e" stroke-width="1.4" fill="none" opacity=".45"/><path d="M0 202 Q 266.6666666666667 214 400.0 202 T 800 202" stroke="#1c130e" stroke-width="1.4" fill="none" opacity=".45"/><path d="M0 201 Q 266.6666666666667 199 400.0 201 T 800 201" stroke="#1c130e" stroke-width="1.4" fill="none" opacity=".45"/><path d="M0 172 Q 266.6666666666667 161 400.0 172 T 800 172" stroke="#1c130e" stroke-width="1.4" fill="none" opacity=".45"/><path d="M0 201 Q 266.6666666666667 199 400.0 201 T 800 201" stroke="#1c130e" stroke-width="1.4" fill="none" opacity=".45"/><rect y="232" width="800" height="90" fill="#33241b" opacity="0.54"/><path d="M0 314 Q 266.6666666666667 304 400.0 314 T 800 314" stroke="#1c130e" stroke-width="1.4" fill="none" opacity=".45"/><path d="M0 302 Q 266.6666666666667 304 400.0 302 T 800 302" stroke="#1c130e" stroke-width="1.4" fill="none" opacity=".45"/><path d="M0 252 Q 266.6666666666667 247 400.0 252 T 800 252" stroke="#1c130e" stroke-width="1.4" fill="none" opacity=".45"/><path d="M0 264 Q 266.6666666666667 266 400.0 264 T 800 264" stroke="#1c130e" stroke-width="1.4" fill="none" opacity=".45"/><path d="M0 276 Q 266.6666666666667 277 400.0 276 T 800 276" stroke="#1c130e" stroke-width="1.4" fill="none" opacity=".45"/><path d="M0 283 Q 266.6666666666667 271 400.0 283 T 800 283" stroke="#1c130e" stroke-width="1.4" fill="none" opacity=".45"/><rect y="325" width="800" height="114" fill="#33241b" opacity="0.35"/><path d="M0 372 Q 266.6666666666667 372 400.0 372 T 800 372" stroke="#1c130e" stroke-width="1.4" fill="none" opacity=".45"/><path d="M0 360 Q 266.6666666666667 368 400.0 360 T 800 360" stroke="#1c130e" stroke-width="1.4" fill="none" opacity=".45"/><path d="M0 384 Q 266.6666666666667 379 400.0 384 T 800 384" stroke="#1c130e" stroke-width="1.4" fill="none" opacity=".45"/><path d="M0 372 Q 266.6666666666667 378 400.0 372 T 800 372" stroke="#1c130e" stroke-width="1.4" fill="none" opacity=".45"/><path d="M0 360 Q 266.6666666666667 360 400.0 360 T 800 360" stroke="#1c130e" stroke-width="1.4" fill="none" opacity=".45"/><path d="M0 411 Q 266.6666666666667 400 400.0 411 T 800 411" stroke="#1c130e" stroke-width="1.4" fill="none" opacity=".45"/><rect y="442" width="800" height="90" fill="#33241b" opacity="0.61"/><path d="M0 485 Q 266.6666666666667 481 400.0 485 T 800 485" stroke="#1c130e" stroke-width="1.4" fill="none" opacity=".45"/><path d="M0 507 Q 266.6666666666667 519 400.0 507 T 800 507" stroke="#1c130e" stroke-width="1.4" fill="none" opacity=".45"/><path d="M0 508 Q 266.6666666666667 510 400.0 508 T 800 508" stroke="#1c130e" stroke-width="1.4" fill="none" opacity=".45"/><path d="M0 448 Q 266.6666666666667 437 400.0 448 T 800 448" stroke="#1c130e" stroke-width="1.4" fill="none" opacity=".45"/><path d="M0 495 Q 266.6666666666667 497 400.0 495 T 800 495" stroke="#1c130e" stroke-width="1.4" fill="none" opacity=".45"/><path d="M0 476 Q 266.6666666666667 483 400.0 476 T 800 476" stroke="#1c130e" stroke-width="1.4" fill="none" opacity=".45"/><rect y="535" width="800" height="96" fill="#33241b" opacity="0.33"/><path d="M0 616 Q 266.6666666666667 619 400.0 616 T 800 616" stroke="#1c130e" stroke-width="1.4" fill="none" opacity=".45"/><path d="M0 610 Q 266.6666666666667 610 400.0 610 T 800 610" stroke="#1c130e" stroke-width="1.4" fill="none" opacity=".45"/><path d="M0 560 Q 266.6666666666667 551 400.0 560 T 800 560" stroke="#1c130e" stroke-width="1.4" fill="none" opacity=".45"/><path d="M0 573 Q 266.6666666666667 585 400.0 573 T 800 573" stroke="#1c130e" stroke-width="1.4" fill="none" opacity=".45"/><path d="M0 596 Q 266.6666666666667 586 400.0 596 T 800 596" stroke="#1c130e" stroke-width="1.4" fill="none" opacity=".45"/><path d="M0 579 Q 266.6666666666667 581 400.0 579 T 800 579" stroke="#1c130e" stroke-width="1.4" fill="none" opacity=".45"/><circle cx="414" cy="312" r="220" fill="#000" opacity=".4" filter="url(#blur)"/><circle cx="400" cy="290" r="220" fill="#1d4a3c"/><circle cx="400" cy="290" r="189.2" fill="#0e0b09" opacity=".25"/><circle cx="400" cy="290" r="180" fill="#e8a33d"/><circle cx="400" cy="290" r="180" fill="url(#curry)"/><g transform="rotate(-20 340 250)"><ellipse cx="340" cy="250" rx="70" ry="32" fill="#f4e7cf"/><ellipse cx="340" cy="250" rx="70" ry="32" fill="none" stroke="#d99a4c" stroke-width="5"/><path d="M300 228 q 8 22 0 44" stroke="#e6cfa7" stroke-width="3" fill="none"/><path d="M320 228 q 8 22 0 44" stroke="#e6cfa7" stroke-width="3" fill="none"/><path d="M340 228 q 8 22 0 44" stroke="#e6cfa7" stroke-width="3" fill="none"/><path d="M360 228 q 8 22 0 44" stroke="#e6cfa7" stroke-width="3" fill="none"/></g><g transform="rotate(25 450 320)"><ellipse cx="450" cy="320" rx="70" ry="32" fill="#f4e7cf"/><ellipse cx="450" cy="320" rx="70" ry="32" fill="none" stroke="#d99a4c" stroke-width="5"/><path d="M410 298 q 8 22 0 44" stroke="#e6cfa7" stroke-width="3" fill="none"/><path d="M430 298 q 8 22 0 44" stroke="#e6cfa7" stroke-width="3" fill="none"/><path d="M450 298 q 8 22 0 44" stroke="#e6cfa7" stroke-width="3" fill="none"/><path d="M470 298 q 8 22 0 44" stroke="#e6cfa7" stroke-width="3" fill="none"/></g><g transform="rotate(70 420 220)"><ellipse cx="420" cy="220" rx="70" ry="32" fill="#f4e7cf"/><ellipse cx="420" cy="220" rx="70" ry="32" fill="none" stroke="#d99a4c" stroke-width="5"/><path d="M380 198 q 8 22 0 44" stroke="#e6cfa7" stroke-width="3" fill="none"/><path d="M400 198 q 8 22 0 44" stroke="#e6cfa7" stroke-width="3" fill="none"/><path d="M420 198 q 8 22 0 44" stroke="#e6cfa7" stroke-width="3" fill="none"/><path d="M440 198 q 8 22 0 44" stroke="#e6cfa7" stroke-width="3" fill="none"/></g><circle cx="368" cy="161" r="4" fill="#fff6dc" opacity=".55"/><circle cx="307" cy="206" r="5" fill="#fff6dc" opacity=".55"/><circle cx="448" cy="162" r="7" fill="#fff6dc" opacity=".55"/><circle cx="470" cy="419" r="7" fill="#fff6dc" opacity=".55"/><circle cx="408" cy="338" r="8" fill="#fff6dc" opacity=".55"/><circle cx="448" cy="246" r="4" fill="#fff6dc" opacity=".55"/><circle cx="521" cy="412" r="4" fill="#fff6dc" opacity=".55"/><circle cx="450" cy="308" r="8" fill="#fff6dc" opacity=".55"/><circle cx="367" cy="272" r="7" fill="#fff6dc" opacity=".55"/><circle cx="443" cy="331" r="8" fill="#fff6dc" opacity=".55"/><circle cx="400" cy="305" r="4" fill="#fff6dc" opacity=".55"/><circle cx="449" cy="218" r="6" fill="#fff6dc" opacity=".55"/><circle cx="532" cy="327" r="5" fill="#fff6dc" opacity=".55"/><circle cx="428" cy="218" r="6" fill="#fff6dc" opacity=".55"/><circle cx="342" cy="373" r="4" fill="#fff6dc" opacity=".55"/><circle cx="444" cy="273" r="7" fill="#fff6dc" opacity=".55"/><circle cx="261" cy="242" r="9" fill="#fff6dc" opacity=".55"/><circle cx="361" cy="388" r="6" fill="#fff6dc" opacity=".55"/><circle cx="467" cy="292" r="5" fill="#fff6dc" opacity=".55"/><circle cx="348" cy="394" r="5" fill="#fff6dc" opacity=".55"/><path d="M445 210 q 7 -10 15 -3 q -7 10 -15 3z" fill="#4f9a3f" transform="rotate(29 445 210)"/><path d="M469 303 q 7 -10 15 -3 q -7 10 -15 3z" fill="#4f9a3f" transform="rotate(164 469 303)"/><path d="M349 178 q 7 -10 15 -3 q -7 10 -15 3z" fill="#4f9a3f" transform="rotate(254 349 178)"/><path d="M271 252 q 7 -10 15 -3 q -7 10 -15 3z" fill="#4f9a3f" transform="rotate(277 271 252)"/><path d="M456 397 q 7 -10 15 -3 q -7 10 -15 3z" fill="#4f9a3f" transform="rotate(355 456 397)"/><path d="M453 414 q 7 -10 15 -3 q -7 10 -15 3z" fill="#4f9a3f" transform="rotate(256 453 414)"/><path d="M477 379 q 7 -10 15 -3 q -7 10 -15 3z" fill="#4f9a3f" transform="rotate(87 477 379)"/><path d="M324 173 q 7 -10 15 -3 q -7 10 -15 3z" fill="#4f9a3f" transform="rotate(148 324 173)"/><path d="M348 273 q 7 -10 15 -3 q -7 10 -15 3z" fill="#4f9a3f" transform="rotate(247 348 273)"/><path d="M395 240 q 7 -10 15 -3 q -7 10 -15 3z" fill="#4f9a3f" transform="rotate(140 395 240)"/><path d="M355 405 q 7 -10 15 -3 q -7 10 -15 3z" fill="#4f9a3f" transform="rotate(279 355 405)"/><path d="M531 268 q 7 -10 15 -3 q -7 10 -15 3z" fill="#4f9a3f" transform="rotate(292 531 268)"/><path d="M462 184 q 7 -10 15 -3 q -7 10 -15 3z" fill="#4f9a3f" transform="rotate(163 462 184)"/><path d="M281 237 q 7 -10 15 -3 q -7 10 -15 3z" fill="#4f9a3f" transform="rotate(186 281 237)"/><path d="M289 294 q 7 -10 15 -3 q -7 10 -15 3z" fill="#4f9a3f" transform="rotate(84 289 294)"/><path d="M453 181 q 7 -10 15 -3 q -7 10 -15 3z" fill="#4f9a3f" transform="rotate(54 453 181)"/><path d="M504 348 q 7 -10 15 -3 q -7 10 -15 3z" fill="#4f9a3f" transform="rotate(303 504 348)"/><path d="M535 230 q 7 -10 15 -3 q -7 10 -15 3z" fill="#4f9a3f" transform="rotate(75 535 230)"/><rect width="800" height="560" fill="url(#vig)"/></svg>